<svg xmlns="http://www.w3.org/2000/svg" version="1.0" width="436.000000pt" max-height="248.000000pt"
    viewBox="0 0 436.000000 248.000000">
    <g transform="translate(0.000000,248.000000) scale(0.100000,-0.100000)" fill="#000000">
        <defs>
            <mask id="mask1">
                <path fill="none" stroke="white" stroke-width="400" stroke-linecap="round" stroke-dasharray="2800"
                    stroke-dashoffset="2800" d="M34 1200 c -100 -1200 1700 1300 1700 1300">
                    <animate attributeName="stroke-dashoffset" dur=".5s" values="2800;2400;0" fill="freeze" />
                </path>

            </mask>
            <mask id="mask2">
                <path fill="none" stroke="white" stroke-width="400" stroke-linecap="round" stroke-dasharray="3000"
                    stroke-dashoffset="3000" d="M1782 2405 l -1000 -2000 ">
                    <animate attributeName="stroke-dashoffset" dur=".25s" values="3000;0" begin="+.5s" fill="freeze" />
                </path>
            </mask>
            <mask id="mask3">
                <path fill="none" stroke="white" stroke-width="400" stroke-linecap="round" stroke-dasharray="1400"
                    stroke-dashoffset="1400" d="M630 1800 c 0 -400  840 0 840 -700 ">
                    <animate attributeName="stroke-dashoffset" dur=".25s" values="1400;1000;400;0" begin="+.75s"
                        fill="freeze" />
                </path>
            </mask>
            <mask id="mask4">
                <path fill="none" stroke="white" stroke-width="400" stroke-linecap="round" stroke-linejoin="round"
                    stroke-dasharray="14000" stroke-dashoffset="14000"
                    d="M1770 1800 l -350 -800 450 800 c 700 300 250 -500 250 -500 -180 -900 500 960 850 480 c -200 600 -800 -1500 -325 -800 l 630 1300 c 300 0 -450 -1300 -450 -1300 c 300 0 600 900 600 900 c 200 0 0 -650 0 -650 c 0 -400 250 0 500 600 c 250 0 -200 -850  -190 -840 ">

                    <animate attributeName="stroke-dashoffset" dur="3s" values="14000;0" begin="+1.25s" fill="freeze" />
                </path>
            </mask>
            <mask id="mask5">
                <path fill="none" stroke="white" stroke-width="400" stroke-linecap="round" stroke-linejoin="round"
                    stroke-dasharray="14000" stroke-dashoffset="14000" d="M3660 600 c -200 -1200 -1500 500 500 -100 ">
                    <animate attributeName="stroke-dashoffset" dur="1s" values="14000;0" begin="+3.95s" fill="freeze" />
                </path>
            </mask>
            </mask>
            </mask>
            <mask id="mask6">
                <path fill="none" stroke="white" stroke-width="400" stroke-linecap="round" stroke-linejoin="round"
                    stroke-dasharray="14000" stroke-dashoffset="14000" d="M3660 600 c -200 -1200 -1500 500 500 -100 ">
                    <animate attributeName="stroke-dashoffset" dur="1s" values="14000;0" begin="+3.95s" fill="freeze" />
                </path>
            </mask>
            </mask>
            </mask>
        </defs>

        <!--  Original Text  -->
        <!-- 'A' -->
        <!--     <path fill="gray" d="M1414 2183 c-131 -159 -294 -356 -363 -439 l-125 -151 -56 13 c-101 23 -168 54 -220 101 -57 51 -61 50 -80 -17 -32 -112 19 -203 143 -260 l58 -26 -128 -130 c-219 -223 -368 -324 -478 -324 -57 0 -109 26 -127 65 -18 39 -28 19 -28 -53 0 -119 48 -171 161 -174 76 -2 147 25 253 95 103 70 309 265 431 411 52 62 87 95 100 96 20 0 161 -36 176 -46 4 -2 -35 -97 -87 -210 -52 -113 -98 -219 -101 -235 -7 -35 13 -86 38 -99 10 -6 32 -10 48 -10 40 0 45 8 168 277 l97 212 40 -32 c22 -17 58 -55 80 -84 22 -29 44 -49 48 -45 14 14 31 169 23 217 -7 49 -31 81 -84 116 l-24 15 160 354 c252 559 256 567 243 590 -15 28 -69 60 -102 60 -22 0 -61 -42 -264 -287z m72 -65 c-7 -18 -55 -125 -105 -238 -51 -113 -106 -238 -123 -278 l-30 -73 -41 7 c-23 3 -58 12 -79 18 l-37 11 212 292 c116 161 213 293 215 293 1 0 -4 -15 -12 -32z" /> -->
        <!--   'ndy'   -->
        <!--      <path fill="gray" d="M3421 2276 c-7 -8 -70 -143 -140 -300 l-128 -285 -21 45 c-76 155 -366 82 -516 -130 -55 -77 -94 -156 -136 -271 -70 -196 -194 -377 -266 -391 -26 -5 -40 -2 -54 11 -39 35 -27 83 85 338 124 284 141 386 75 461 -36 40 -123 71 -181 63 -46 -6 -114 -39 -150 -73 l-26 -25 -13 31 c-15 35 -55 70 -81 70 -10 0 -29 -10 -42 -22 -30 -28 -367 -783 -367 -823 0 -55 36 -94 87 -95 30 0 35 5 64 61 17 34 75 162 129 285 104 236 172 359 241 437 71 81 137 100 186 51 23 -23 25 -31 20 -83 -4 -54 -27 -115 -153 -416 -48 -115 -53 -174 -22 -234 39 -76 113 -111 193 -90 54 14 149 113 196 203 l36 68 7 -53 c9 -74 24 -118 53 -157 76 -101 218 -89 335 29 58 57 58 57 64 31 13 -62 22 -78 52 -98 38 -26 102 -37 137 -24 41 16 123 98 174 176 l47 72 -4 -56 c-7 -119 69 -193 201 -195 61 -1 106 13 154 49 22 16 22 15 -4 -45 l-26 -61 -53 0 c-155 0 -351 -77 -450 -176 -83 -82 -132 -222 -120 -338 18 -175 160 -272 328 -226 51 15 126 76 180 148 46 61 134 226 181 337 14 33 39 91 56 128 l31 69 48 -27 c78 -46 152 -104 243 -193 52 -50 90 -79 94 -73 20 34 -194 230 -322 295 l-53 26 24 53 c12 28 97 216 187 417 155 345 164 368 164 427 0 55 -3 65 -30 93 -55 58 -53 61 -240 -355 -159 -355 -174 -384 -227 -440 l-56 -60 -62 0 c-56 0 -65 3 -82 26 -35 47 -27 109 30 240 27 63 86 198 131 300 44 103 81 197 81 209 0 59 -57 119 -100 105 -26 -8 -41 -34 -113 -201 -222 -511 -367 -727 -463 -690 -13 5 -15 15 -11 45 5 37 156 386 379 876 90 196 111 251 115 301 6 66 -11 115 -46 134 -26 13 -36 13 -50 -4z m-348 -577 c26 -28 32 -52 27 -109 -2 -27 -126 -308 -166 -377 -51 -88 -148 -206 -193 -234 -58 -37 -104 -38 -127 -4 -76 117 165 663 329 744 52 26 92 20 130 -20z m528 -927 c-6 -11 -40 -93 -76 -183 -99 -247 -166 -348 -259 -390 -171 -78 -289 116 -190 316 80 164 263 267 482 274 48 1 52 -1 43 -17z" /> -->
        <!--   'H'   -->

        <!--     <path fill="gray" d="M1414 2183    c-131 -159 -294 -356 -363 -439  l-125 -151 -56 13  c-101 23 -168 54 -220 101  -57 51 -61 50 -80 -17 -32 -112 19 -203 143 -260  l58 -26 -128 -130 c-219 -223 -368 -324 -478 -324 -57 0 -109 26 -127 65 -18 39 -28 19 -28 -53 0 -119 48 -171 161 -174 76 -2 147 25 253 95 103 70 309 265 431 411 52 62 87 95 100 96 20 0 161 -36 176 -46 4 -2 -35 -97 -87 -210 -52 -113 -98 -219 -101 -235 -7 -35 13 -86 38 -99 10 -6 32 -10 48 -10 40 0 45 8 168 277 l97 212 40 -32 c22 -17 58 -55 80 -84 22 -29 44 -49 48 -45 14 14 31 169 23 217 -7 49 -31 81 -84 116 l-24 15 160 354 c252 559 256 567 243 590 -15 28 -69 60 -102 60 -22 0 -61 -42 -264 -287z m72 -65 c-7 -18 -55 -125 -105 -238 -51 -113 -106 -238 -123 -278 l-30 -73 -41 7 c-23 3 -58 12 -79 18 l-37 11 212 292 c116 161 213 293 215 293 1 0 -4 -15 -12 -32z" />
 -->
        <path fill="black" mask="url(#mask3)"
            d="M630 1720  c 200 -300  1000 0  830 -600  c -300 400 -1050 150 -880 600 c 20 40 40 20 50 0 " />

        <path fill="black" mask="url(#mask1)"
            d="M1414 2183 c-131 -159 -294 -356 -363 -439  l-125 -151 -158 -188  -128 -130  c-219 -223 -368 -324 -478 -324 -57 0 -109 26 -127 65 -18 39 -28 19 -28 -53 0 -119 48 -171 161 -174 76 -2 147 25 253 95 103 70 309 255 431 411  l 930 1100 c 0 50 -100 90 -120 70 -40 -10 -125 -143 -250 -285z" />

        <path fill="black" mask="url(#mask2)"
            d="M1782 2405 c 0 50 -100 90 -120 70 -100 -50 -710 -1550 -710 -1550 c -70 -140 110 -190 130 -100 110 200 600 1400 700 1570" />

        <path fill="black" mask="url(#mask4)"
            d="M3421 2276 c-7 -8 -70 -143 -140 -300 l-128 -285 -21 45 c-76 155 -366 82 -516 -130 -55 -77 -94 -156 -136 -271 -70 -196 -194 -377 -266 -391 -26 -5 -40 -2 -54 11 -39 35 -27 83 85 338 124 284 141 386 75 461 -36 40 -123 71 -181 63 -46 -6 -114 -39 -150 -73 l-26 -25 -13 31 c-15 35 -55 70 -81 70 -10 0 -29 -10 -42 -22 -30 -28 -367 -783 -367 -823 0 -55 36 -94 87 -95 30 0 35 5 64 61 17 34 75 162 129 285 104 236 172 359 241 437 71 81 137 100 186 51 23 -23 25 -31 20 -83 -4 -54 -27 -115 -153 -416 -48 -115 -53 -174 -22 -234 39 -76 113 -111 193 -90 54 14 149 113 196 203 l36 68 7 -53 c9 -74 24 -118 53 -157 76 -101 218 -89 335 29 58 57 58 57 64 31 13 -62 22 -78 52 -98 38 -26 102 -37 137 -24 41 16 123 98 174 176 l47 72 -4 -56 c-7 -119 69 -193 201 -195 61 -1 106 13 154 49 22 16 22 15 -4 -45 l-26 -61 -53 0 c-155 0 -351 -77 -450 -176 -83 -82 -132 -222 -120 -338 18 -175 160 -272 328 -226 51 15 126 76 180 148 46 61 134 226 181 337 14 33 39 91 56 128 l31 69 48 -27 c78 -46 152 -104 243 -193 52 -50 90 -79 94 -73 20 34 -194 230 -322 295 l-53 26 24 53 c12 28 97 216 187 417 155 345 164 368 164 427 0 55 -3 65 -30 93 -55 58 -53 61 -240 -355 -159 -355 -174 -384 -227 -440 l-56 -60 -62 0 c-56 0 -65 3 -82 26 -35 47 -27 109 30 240 27 63 86 198 131 300 44 103 81 197 81 209 0 59 -57 119 -100 105 -26 -8 -41 -34 -113 -201 -222 -511 -367 -727 -463 -690 -13 5 -15 15 -11 45 5 37 156 386 379 876 90 196 111 251 115 301 6 66 -11 115 -46 134 -26 13 -36 13 -50 -4z m-348 -577 c26 -28 32 -52 27 -109 -2 -27 -126 -308 -166 -377 -51 -88 -148 -206 -193 -234 -58 -37 -104 -38 -127 -4 -76 117 165 663 329 744 52 26 92 20 130 -20z m528 -927 c-6 -11 -40 -93 -76 -183 -99 -247 -166 -348 -259 -390 -171 -78 -289 116 -190 316 80 164 263 267 482 274 48 1 52 -1 43 -17z" />
        <path fill="black" mask="url(#mask5)"
            d="M3421 2276 c-7 -8 -70 -143 -140 -300 l-128 -285 -21 45 c-76 155 -366 82 -516 -130 -55 -77 -94 -156 -136 -271 -70 -196 -194 -377 -266 -391 -26 -5 -40 -2 -54 11 -39 35 -27 83 85 338 124 284 141 386 75 461 -36 40 -123 71 -181 63 -46 -6 -114 -39 -150 -73 l-26 -25 -13 31 c-15 35 -55 70 -81 70 -10 0 -29 -10 -42 -22 -30 -28 -367 -783 -367 -823 0 -55 36 -94 87 -95 30 0 35 5 64 61 17 34 75 162 129 285 104 236 172 359 241 437 71 81 137 100 186 51 23 -23 25 -31 20 -83 -4 -54 -27 -115 -153 -416 -48 -115 -53 -174 -22 -234 39 -76 113 -111 193 -90 54 14 149 113 196 203 l36 68 7 -53 c9 -74 24 -118 53 -157 76 -101 218 -89 335 29 58 57 58 57 64 31 13 -62 22 -78 52 -98 38 -26 102 -37 137 -24 41 16 123 98 174 176 l47 72 -4 -56 c-7 -119 69 -193 201 -195 61 -1 106 13 154 49 22 16 22 15 -4 -45 l-26 -61 -53 0 c-155 0 -351 -77 -450 -176 -83 -82 -132 -222 -120 -338 18 -175 160 -272 328 -226 51 15 126 76 180 148 46 61 134 226 181 337 14 33 39 91 56 128 l31 69 48 -27 c78 -46 152 -104 243 -193 52 -50 90 -79 94 -73 20 34 -194 230 -322 295 l-53 26 24 53 c12 28 97 216 187 417 155 345 164 368 164 427 0 55 -3 65 -30 93 -55 58 -53 61 -240 -355 -159 -355 -174 -384 -227 -440 l-56 -60 -62 0 c-56 0 -65 3 -82 26 -35 47 -27 109 30 240 27 63 86 198 131 300 44 103 81 197 81 209 0 59 -57 119 -100 105 -26 -8 -41 -34 -113 -201 -222 -511 -367 -727 -463 -690 -13 5 -15 15 -11 45 5 37 156 386 379 876 90 196 111 251 115 301 6 66 -11 115 -46 134 -26 13 -36 13 -50 -4z m-348 -577 c26 -28 32 -52 27 -109 -2 -27 -126 -308 -166 -377 -51 -88 -148 -206 -193 -234 -58 -37 -104 -38 -127 -4 -76 117 165 663 329 744 52 26 92 20 130 -20z m528 -927 c-6 -11 -40 -93 -76 -183 -99 -247 -166 -348 -259 -390 -171 -78 -289 116 -190 316 80 164 263 267 482 274 48 1 52 -1 43 -17z" />

    </g>


</svg>
<svg xmlns="http://www.w3.org/2000/svg" version="1.0" width="636.000000pt" max-height="248.000000pt"
    viewBox="0 0 636.000000 248.000000" preserveAspectRatio="xMidYMid meet">
    <g transform="translate(0.000000,248.000000) scale(0.100000,-0.100000)" fill="#000000">
        <defs>
            <!--     Masks for H     -->
            <mask id="mask7">
                <path fill="none" stroke="white" stroke-width="400" stroke-linecap="round" stroke-dasharray="1800"
                    stroke-dashoffset="1800" d="M70 1400 c 100 500 900 1600 1300 1100">
                    <animate attributeName="stroke-dashoffset" dur=".2s" begin="+5s" values="1800;0" fill="freeze" />
                </path>
            </mask>
            <mask id="mask8">
                <path fill="none" stroke="white" stroke-width="150" stroke-linecap="round" stroke-dasharray="2000"
                    stroke-dashoffset="2000" d="M1080 2500 l -730 -1650">
                    <animate attributeName="stroke-dashoffset" dur=".2s" begin="+5.2s" values="2000;0" fill="freeze" />
                </path>
            </mask>
            <mask id="mask9">
                <path fill="none" stroke="white" stroke-width="150" stroke-linecap="round" stroke-dasharray="2000"
                    stroke-dashoffset="2000" d="M1730 2500 l -730 -1650">
                    <animate attributeName="stroke-dashoffset" dur=".2s" begin="+5.7s" values="2000;0" fill="freeze" />
                </path>
            </mask>
            <mask id="mask10">
                <path fill="none" stroke="white" stroke-width="180" stroke-linecap="round" stroke-dasharray="2000"
                    stroke-dashoffset="2000" d="M100 1270 c 800 1000 1000 -50 1600 450">
                    <animate attributeName="stroke-dashoffset" dur=".2s" begin="+6s" values="2000;0" fill="freeze" />
                </path>
            </mask>
        </defs>

        <path fill="black" mask="url(#mask7)"
            d="M835 2454 c-244 -53 -419 -201 -547 -459 -33 -67 -39 -88 -35 -127 7 -81 79 -203 115 -196 10 2 34 45 62 113 61 145 81 184 153 288 94 138 211 234 309 254 25 5 30 3 25 -8 -3 -8 -57 -127 -119 -266 -109 -245 -113 -252 -145 -258 -43 -8 -183 -78 -215 -108 -32 -30 -68 -125 -68 -181 0 -23 3 -45 6 -49 3 -3 44 23 89 58 86 65 125 90 125 80 0 -3 -56 -133 -124 -288 -196 -446 -187 -421 -165 -470 14 -32 48 -50 85 -45 35 4 47 27 234 453 70 160 139 316 154 349 l26 59 44 -5 c24 -3 92 -28 152 -55 60 -28 132 -58 161 -67 l52 -17 -51 -112 c-186 -417 -220 -501 -214 -532 9 -46 46 -77 87 -73 43 4 46 9 214 391 l132 302 54 6 c118 13 168 40 204 112 20 41 35 117 22 117 -2 0 -43 -9 -92 -19 -49 -11 -91 -18 -93 -16 -3 2 64 157 147 345 143 319 151 342 139 367 -16 33 -73 73 -103 73 -25 0 -14 21 -196 -395 -161 -366 -180 -405 -198 -405 -33 0 -119 29 -206 68 -49 22 -110 46 -135 53 -25 7 -46 13 -48 14 -1 1 54 128 122 281 68 154 126 293 130 310 4 19 1 36 -8 49 -12 17 -28 20 -113 22 -59 1 -126 -4 -168 -13z" />

        <path fill="black" mask="url(#mask8)"
            d="M835 2454 c-244 -53 -419 -201 -547 -459 -33 -67 -39 -88 -35 -127 7 -81 79 -203 115 -196 10 2 34 45 62 113 61 145 81 184 153 288 94 138 211 234 309 254 25 5 30 3 25 -8 -3 -8 -57 -127 -119 -266 -109 -245 -113 -252 -145 -258 -43 -8 -183 -78 -215 -108 -32 -30 -68 -125 -68 -181 0 -23 3 -45 6 -49 3 -3 44 23 89 58 86 65 125 90 125 80 0 -3 -56 -133 -124 -288 -196 -446 -187 -421 -165 -470 14 -32 48 -50 85 -45 35 4 47 27 234 453 70 160 139 316 154 349 l26 59 44 -5 c24 -3 92 -28 152 -55 60 -28 132 -58 161 -67 l52 -17 -51 -112 c-186 -417 -220 -501 -214 -532 9 -46 46 -77 87 -73 43 4 46 9 214 391 l132 302 54 6 c118 13 168 40 204 112 20 41 35 117 22 117 -2 0 -43 -9 -92 -19 -49 -11 -91 -18 -93 -16 -3 2 64 157 147 345 143 319 151 342 139 367 -16 33 -73 73 -103 73 -25 0 -14 21 -196 -395 -161 -366 -180 -405 -198 -405 -33 0 -119 29 -206 68 -49 22 -110 46 -135 53 -25 7 -46 13 -48 14 -1 1 54 128 122 281 68 154 126 293 130 310 4 19 1 36 -8 49 -12 17 -28 20 -113 22 -59 1 -126 -4 -168 -13z" />

        <path fill="black" mask="url(#mask9)"
            d="M835 2454 c-244 -53 -419 -201 -547 -459 -33 -67 -39 -88 -35 -127 7 -81 79 -203 115 -196 10 2 34 45 62 113 61 145 81 184 153 288 94 138 211 234 309 254 25 5 30 3 25 -8 -3 -8 -57 -127 -119 -266 -109 -245 -113 -252 -145 -258 -43 -8 -183 -78 -215 -108 -32 -30 -68 -125 -68 -181 0 -23 3 -45 6 -49 3 -3 44 23 89 58 86 65 125 90 125 80 0 -3 -56 -133 -124 -288 -196 -446 -187 -421 -165 -470 14 -32 48 -50 85 -45 35 4 47 27 234 453 70 160 139 316 154 349 l26 59 44 -5 c24 -3 92 -28 152 -55 60 -28 132 -58 161 -67 l52 -17 -51 -112 c-186 -417 -220 -501 -214 -532 9 -46 46 -77 87 -73 43 4 46 9 214 391 l132 302 54 6 c118 13 168 40 204 112 20 41 35 117 22 117 -2 0 -43 -9 -92 -19 -49 -11 -91 -18 -93 -16 -3 2 64 157 147 345 143 319 151 342 139 367 -16 33 -73 73 -103 73 -25 0 -14 21 -196 -395 -161 -366 -180 -405 -198 -405 -33 0 -119 29 -206 68 -49 22 -110 46 -135 53 -25 7 -46 13 -48 14 -1 1 54 128 122 281 68 154 126 293 130 310 4 19 1 36 -8 49 -12 17 -28 20 -113 22 -59 1 -126 -4 -168 -13z" />

        <path fill="black" mask="url(#mask10)"
            d="M835 2454 c-244 -53 -419 -201 -547 -459 -33 -67 -39 -88 -35 -127 7 -81 79 -203 115 -196 10 2 34 45 62 113 61 145 81 184 153 288 94 138 211 234 309 254 25 5 30 3 25 -8 -3 -8 -57 -127 -119 -266 -109 -245 -113 -252 -145 -258 -43 -8 -183 -78 -215 -108 -32 -30 -68 -125 -68 -181 0 -23 3 -45 6 -49 3 -3 44 23 89 58 86 65 125 90 125 80 0 -3 -56 -133 -124 -288 -196 -446 -187 -421 -165 -470 14 -32 48 -50 85 -45 35 4 47 27 234 453 70 160 139 316 154 349 l26 59 44 -5 c24 -3 92 -28 152 -55 60 -28 132 -58 161 -67 l52 -17 -51 -112 c-186 -417 -220 -501 -214 -532 9 -46 46 -77 87 -73 43 4 46 9 214 391 l132 302 54 6 c118 13 168 40 204 112 20 41 35 117 22 117 -2 0 -43 -9 -92 -19 -49 -11 -91 -18 -93 -16 -3 2 64 157 147 345 143 319 151 342 139 367 -16 33 -73 73 -103 73 -25 0 -14 21 -196 -395 -161 -366 -180 -405 -198 -405 -33 0 -119 29 -206 68 -49 22 -110 46 -135 53 -25 7 -46 13 -48 14 -1 1 54 128 122 281 68 154 126 293 130 310 4 19 1 36 -8 49 -12 17 -28 20 -113 22 -59 1 -126 -4 -168 -13z" />

        <defs>
            <mask id="mask11">
                <path fill="none" stroke="white" stroke-width="400" stroke-linecap="round" stroke-dasharray="1800"
                    stroke-dashoffset="1800" d="M2300 1830 c -600 100 -800 -1400 -190 -700">
                    <animate attributeName="stroke-dashoffset" dur=".3s" begin="+6.5s" values="1800;0" fill="freeze" />
                </path>
            </mask>
            <mask id="mask12">
                <path fill="none" stroke="white" stroke-width="80" stroke-linecap="round" stroke-dasharray="1800"
                    stroke-dashoffset="1800" d="M2250 1270 c 130 700 -200 200 0 10 c 300 20 400 500 400 500">
                    <animate attributeName="stroke-dashoffset" dur=".3s" begin="+6.8s" values="1800;0" fill="freeze" />
                </path>
            </mask>
            <mask id="mask13">
                <path fill="none" stroke="white" stroke-width="180" stroke-linecap="round" stroke-linejoin="round"
                    stroke-dasharray="22000" stroke-dashoffset="22000"
                    d="M2670 1870 c 200 0 -820 -2000 -820 -2000 c 0 0 820 2000 800 1600 c 100 400 500 400 410 0 c -60 -200 -150 -500 -400 -500 c -100 200 200 200 300 180 c 500 -50 500 500 800 1050 l -550 -1250 280 500 530 400 10 0 -530 -420 c 790 50 -300 -720 380 -400 l 360 750 c 300 0 -200 -750 -200 -750 c 50 -100 80 -100 200 0 c 30 10 360 750 360 750 c 300 50 -200 -800 -200 -800 l 400 750 c 900 400 -400 -1400 345 -650 l 280 600 c 60 150 300 200 420 160 l 0 -100 c -600 60 50 -300 -250 -800 c -200 0 -250 -200 -220 300 c 0 -400 400 -300 750 300">
                    <animate attributeName="stroke-dashoffset" dur="5s" begin="+7.1s" values="22000;0" fill="freeze" />
                </path>
            </mask>
            <mask id="mask14">
                <path fill="none" stroke="white" stroke-width="300" stroke-linecap="round" stroke-linejoin="round"
                    stroke-dasharray="400" stroke-dashoffset="400" d="M4400 1850 l 100 300">
                    <animate attributeName="stroke-dashoffset" dur=".2s" begin="+13s" values="400;0" fill="freeze" />
                </path>
            </mask>
        </defs>
        <path fill="black" mask="url(#mask13)"
            d="M3716 2268 c-8 -13 -63 -131 -121 -263 -59 -132 -165 -373 -237 -535 -72 -162 -140 -306 -152 -319 -35 -39 -101 -64 -151 -56 l-44 6 39 72 c21 40 53 115 71 167 30 86 33 106 33 210 1 100 -2 120 -21 156 -29 54 -84 101 -129 110 -54 10 -138 -13 -189 -51 -42 -33 -44 -33 -47 -12 -4 26 -62 67 -95 67 -27 0 -19 15 -163 -305 -75 -167 -77 -170 -115 -183 -22 -7 -50 -11 -62 -7 -22 5 -22 7 -16 143 7 162 -7 225 -63 291 -43 50 -88 65 -175 59 -116 -9 -243 -92 -322 -211 -112 -169 -181 -475 -133 -590 59 -138 221 -192 362 -120 101 52 231 210 285 347 16 41 17 41 78 46 57 5 60 4 54 -15 -3 -11 -93 -214 -199 -451 -302 -675 -288 -638 -259 -693 15 -30 62 -55 92 -49 23 4 68 94 224 448 219 496 450 1014 472 1058 12 24 50 70 85 103 57 54 67 59 107 59 60 0 69 -18 62 -129 -6 -105 -43 -234 -102 -358 l-43 -92 -62 20 c-108 33 -167 20 -206 -45 -27 -46 -26 -155 2 -193 29 -39 92 -73 135 -73 58 0 150 53 218 125 l60 65 71 0 c44 0 82 6 100 15 17 9 30 14 30 13 0 -2 -9 -27 -20 -57 -34 -87 -3 -161 67 -161 30 0 35 5 62 58 15 31 57 122 91 202 37 84 74 155 89 168 72 65 232 108 247 67 4 -8 -19 -75 -51 -148 -69 -159 -81 -234 -45 -280 28 -35 64 -53 120 -62 39 -5 51 -2 92 24 26 17 68 57 94 91 26 33 48 60 49 60 1 0 0 -11 -2 -24 -7 -35 15 -93 43 -115 35 -27 123 -45 158 -31 15 5 52 33 82 61 l54 52 0 -37 c0 -50 36 -86 84 -86 33 0 38 4 64 57 16 32 62 132 101 223 108 246 145 323 197 403 104 163 196 216 261 151 22 -22 25 -32 21 -77 -5 -55 -52 -185 -138 -381 -65 -146 -74 -218 -38 -280 29 -49 63 -75 114 -86 81 -19 162 31 240 148 l40 59 12 -50 c23 -97 93 -152 206 -164 110 -11 201 47 296 189 66 98 112 185 154 288 28 69 31 80 17 80 -5 0 -30 -42 -55 -92 -46 -96 -147 -270 -152 -265 -2 2 4 25 12 52 23 76 13 142 -45 292 -73 189 -68 229 28 216 40 -6 44 -4 85 41 43 45 74 101 63 112 -11 11 -151 24 -191 17 -117 -18 -150 -51 -250 -252 -46 -91 -89 -184 -96 -206 -7 -22 -26 -65 -42 -96 -15 -31 -28 -59 -28 -62 0 -19 -104 -178 -137 -210 -48 -46 -108 -61 -129 -32 -29 39 -16 92 62 274 106 243 135 332 137 413 2 80 -16 111 -86 146 -93 47 -184 35 -265 -34 l-41 -35 -15 35 c-20 48 -58 71 -98 60 -30 -9 -38 -24 -148 -269 -63 -143 -135 -297 -158 -342 -94 -177 -192 -288 -251 -281 -24 3 -26 7 -25 48 1 33 24 94 89 235 185 404 195 430 196 482 2 74 -36 133 -84 133 -9 0 -44 -64 -92 -172 -43 -95 -102 -227 -132 -292 -128 -283 -245 -436 -333 -436 -21 0 -22 3 -18 48 3 29 32 110 76 210 40 90 72 171 72 181 0 37 -67 75 -163 91 l-66 12 112 80 c226 163 307 230 307 254 0 16 -24 24 -70 24 -30 0 -55 -13 -130 -66 -74 -52 -214 -158 -328 -247 -14 -11 -5 10 100 238 86 185 159 369 165 415 6 46 -17 94 -57 115 -37 19 -37 19 -54 -7z m-1518 -534 c22 -15 44 -50 56 -91 6 -19 4 -23 -14 -23 -33 0 -75 -26 -88 -55 -16 -36 -15 -128 3 -170 8 -20 29 -48 46 -65 l32 -29 -17 -44 c-40 -107 -175 -270 -257 -313 -50 -25 -110 -28 -146 -5 -82 51 -90 139 -29 316 103 298 242 494 351 495 22 0 51 -7 63 -16z m3352 -324 c64 -125 76 -238 39 -363 -26 -88 -61 -127 -115 -127 -82 0 -93 56 -44 215 17 54 30 103 30 110 0 17 -23 25 -71 25 -21 0 -39 4 -39 8 0 11 69 172 106 244 l28 58 21 -63 c12 -34 32 -82 45 -107z m-2805 -245 c82 -25 79 -21 53 -57 -12 -18 -42 -52 -65 -75 -73 -74 -143 -53 -143 43 0 32 7 49 29 73 33 35 53 38 126 16z" />
        <path fill="black" mask="url(#mask12)"
            d="M3716 2268 c-8 -13 -63 -131 -121 -263 -59 -132 -165 -373 -237 -535 -72 -162 -140 -306 -152 -319 -35 -39 -101 -64 -151 -56 l-44 6 39 72 c21 40 53 115 71 167 30 86 33 106 33 210 1 100 -2 120 -21 156 -29 54 -84 101 -129 110 -54 10 -138 -13 -189 -51 -42 -33 -44 -33 -47 -12 -4 26 -62 67 -95 67 -27 0 -19 15 -163 -305 -75 -167 -77 -170 -115 -183 -22 -7 -50 -11 -62 -7 -22 5 -22 7 -16 143 7 162 -7 225 -63 291 -43 50 -88 65 -175 59 -116 -9 -243 -92 -322 -211 -112 -169 -181 -475 -133 -590 59 -138 221 -192 362 -120 101 52 231 210 285 347 16 41 17 41 78 46 57 5 60 4 54 -15 -3 -11 -93 -214 -199 -451 -302 -675 -288 -638 -259 -693 15 -30 62 -55 92 -49 23 4 68 94 224 448 219 496 450 1014 472 1058 12 24 50 70 85 103 57 54 67 59 107 59 60 0 69 -18 62 -129 -6 -105 -43 -234 -102 -358 l-43 -92 -62 20 c-108 33 -167 20 -206 -45 -27 -46 -26 -155 2 -193 29 -39 92 -73 135 -73 58 0 150 53 218 125 l60 65 71 0 c44 0 82 6 100 15 17 9 30 14 30 13 0 -2 -9 -27 -20 -57 -34 -87 -3 -161 67 -161 30 0 35 5 62 58 15 31 57 122 91 202 37 84 74 155 89 168 72 65 232 108 247 67 4 -8 -19 -75 -51 -148 -69 -159 -81 -234 -45 -280 28 -35 64 -53 120 -62 39 -5 51 -2 92 24 26 17 68 57 94 91 26 33 48 60 49 60 1 0 0 -11 -2 -24 -7 -35 15 -93 43 -115 35 -27 123 -45 158 -31 15 5 52 33 82 61 l54 52 0 -37 c0 -50 36 -86 84 -86 33 0 38 4 64 57 16 32 62 132 101 223 108 246 145 323 197 403 104 163 196 216 261 151 22 -22 25 -32 21 -77 -5 -55 -52 -185 -138 -381 -65 -146 -74 -218 -38 -280 29 -49 63 -75 114 -86 81 -19 162 31 240 148 l40 59 12 -50 c23 -97 93 -152 206 -164 110 -11 201 47 296 189 66 98 112 185 154 288 28 69 31 80 17 80 -5 0 -30 -42 -55 -92 -46 -96 -147 -270 -152 -265 -2 2 4 25 12 52 23 76 13 142 -45 292 -73 189 -68 229 28 216 40 -6 44 -4 85 41 43 45 74 101 63 112 -11 11 -151 24 -191 17 -117 -18 -150 -51 -250 -252 -46 -91 -89 -184 -96 -206 -7 -22 -26 -65 -42 -96 -15 -31 -28 -59 -28 -62 0 -19 -104 -178 -137 -210 -48 -46 -108 -61 -129 -32 -29 39 -16 92 62 274 106 243 135 332 137 413 2 80 -16 111 -86 146 -93 47 -184 35 -265 -34 l-41 -35 -15 35 c-20 48 -58 71 -98 60 -30 -9 -38 -24 -148 -269 -63 -143 -135 -297 -158 -342 -94 -177 -192 -288 -251 -281 -24 3 -26 7 -25 48 1 33 24 94 89 235 185 404 195 430 196 482 2 74 -36 133 -84 133 -9 0 -44 -64 -92 -172 -43 -95 -102 -227 -132 -292 -128 -283 -245 -436 -333 -436 -21 0 -22 3 -18 48 3 29 32 110 76 210 40 90 72 171 72 181 0 37 -67 75 -163 91 l-66 12 112 80 c226 163 307 230 307 254 0 16 -24 24 -70 24 -30 0 -55 -13 -130 -66 -74 -52 -214 -158 -328 -247 -14 -11 -5 10 100 238 86 185 159 369 165 415 6 46 -17 94 -57 115 -37 19 -37 19 -54 -7z m-1518 -534 c22 -15 44 -50 56 -91 6 -19 4 -23 -14 -23 -33 0 -75 -26 -88 -55 -16 -36 -15 -128 3 -170 8 -20 29 -48 46 -65 l32 -29 -17 -44 c-40 -107 -175 -270 -257 -313 -50 -25 -110 -28 -146 -5 -82 51 -90 139 -29 316 103 298 242 494 351 495 22 0 51 -7 63 -16z m3352 -324 c64 -125 76 -238 39 -363 -26 -88 -61 -127 -115 -127 -82 0 -93 56 -44 215 17 54 30 103 30 110 0 17 -23 25 -71 25 -21 0 -39 4 -39 8 0 11 69 172 106 244 l28 58 21 -63 c12 -34 32 -82 45 -107z m-2805 -245 c82 -25 79 -21 53 -57 -12 -18 -42 -52 -65 -75 -73 -74 -143 -53 -143 43 0 32 7 49 29 73 33 35 53 38 126 16z" />

        <path fill="black" mask="url(#mask11)"
            d="M3716 2268 c-8 -13 -63 -131 -121 -263 -59 -132 -165 -373 -237 -535 -72 -162 -140 -306 -152 -319 -35 -39 -101 -64 -151 -56 l-44 6 39 72 c21 40 53 115 71 167 30 86 33 106 33 210 1 100 -2 120 -21 156 -29 54 -84 101 -129 110 -54 10 -138 -13 -189 -51 -42 -33 -44 -33 -47 -12 -4 26 -62 67 -95 67 -27 0 -19 15 -163 -305 -75 -167 -77 -170 -115 -183 -22 -7 -50 -11 -62 -7 -22 5 -22 7 -16 143 7 162 -7 225 -63 291 -43 50 -88 65 -175 59 -116 -9 -243 -92 -322 -211 -112 -169 -181 -475 -133 -590 59 -138 221 -192 362 -120 101 52 231 210 285 347 16 41 17 41 78 46 57 5 60 4 54 -15 -3 -11 -93 -214 -199 -451 -302 -675 -288 -638 -259 -693 15 -30 62 -55 92 -49 23 4 68 94 224 448 219 496 450 1014 472 1058 12 24 50 70 85 103 57 54 67 59 107 59 60 0 69 -18 62 -129 -6 -105 -43 -234 -102 -358 l-43 -92 -62 20 c-108 33 -167 20 -206 -45 -27 -46 -26 -155 2 -193 29 -39 92 -73 135 -73 58 0 150 53 218 125 l60 65 71 0 c44 0 82 6 100 15 17 9 30 14 30 13 0 -2 -9 -27 -20 -57 -34 -87 -3 -161 67 -161 30 0 35 5 62 58 15 31 57 122 91 202 37 84 74 155 89 168 72 65 232 108 247 67 4 -8 -19 -75 -51 -148 -69 -159 -81 -234 -45 -280 28 -35 64 -53 120 -62 39 -5 51 -2 92 24 26 17 68 57 94 91 26 33 48 60 49 60 1 0 0 -11 -2 -24 -7 -35 15 -93 43 -115 35 -27 123 -45 158 -31 15 5 52 33 82 61 l54 52 0 -37 c0 -50 36 -86 84 -86 33 0 38 4 64 57 16 32 62 132 101 223 108 246 145 323 197 403 104 163 196 216 261 151 22 -22 25 -32 21 -77 -5 -55 -52 -185 -138 -381 -65 -146 -74 -218 -38 -280 29 -49 63 -75 114 -86 81 -19 162 31 240 148 l40 59 12 -50 c23 -97 93 -152 206 -164 110 -11 201 47 296 189 66 98 112 185 154 288 28 69 31 80 17 80 -5 0 -30 -42 -55 -92 -46 -96 -147 -270 -152 -265 -2 2 4 25 12 52 23 76 13 142 -45 292 -73 189 -68 229 28 216 40 -6 44 -4 85 41 43 45 74 101 63 112 -11 11 -151 24 -191 17 -117 -18 -150 -51 -250 -252 -46 -91 -89 -184 -96 -206 -7 -22 -26 -65 -42 -96 -15 -31 -28 -59 -28 -62 0 -19 -104 -178 -137 -210 -48 -46 -108 -61 -129 -32 -29 39 -16 92 62 274 106 243 135 332 137 413 2 80 -16 111 -86 146 -93 47 -184 35 -265 -34 l-41 -35 -15 35 c-20 48 -58 71 -98 60 -30 -9 -38 -24 -148 -269 -63 -143 -135 -297 -158 -342 -94 -177 -192 -288 -251 -281 -24 3 -26 7 -25 48 1 33 24 94 89 235 185 404 195 430 196 482 2 74 -36 133 -84 133 -9 0 -44 -64 -92 -172 -43 -95 -102 -227 -132 -292 -128 -283 -245 -436 -333 -436 -21 0 -22 3 -18 48 3 29 32 110 76 210 40 90 72 171 72 181 0 37 -67 75 -163 91 l-66 12 112 80 c226 163 307 230 307 254 0 16 -24 24 -70 24 -30 0 -55 -13 -130 -66 -74 -52 -214 -158 -328 -247 -14 -11 -5 10 100 238 86 185 159 369 165 415 6 46 -17 94 -57 115 -37 19 -37 19 -54 -7z m-1518 -534 c22 -15 44 -50 56 -91 6 -19 4 -23 -14 -23 -33 0 -75 -26 -88 -55 -16 -36 -15 -128 3 -170 8 -20 29 -48 46 -65 l32 -29 -17 -44 c-40 -107 -175 -270 -257 -313 -50 -25 -110 -28 -146 -5 -82 51 -90 139 -29 316 103 298 242 494 351 495 22 0 51 -7 63 -16z m3352 -324 c64 -125 76 -238 39 -363 -26 -88 -61 -127 -115 -127 -82 0 -93 56 -44 215 17 54 30 103 30 110 0 17 -23 25 -71 25 -21 0 -39 4 -39 8 0 11 69 172 106 244 l28 58 21 -63 c12 -34 32 -82 45 -107z m-2805 -245 c82 -25 79 -21 53 -57 -12 -18 -42 -52 -65 -75 -73 -74 -143 -53 -143 43 0 32 7 49 29 73 33 35 53 38 126 16z" />

        <path fill="black" mask="url(#mask14)"
            d="M4514 2265 c-27 -42 -84 -179 -84 -204 0 -26 79 -111 104 -111 23 0 80 138 84 207 4 61 3 64 -31 98 -42 42 -51 43 -73 10z" />
    </g>
</svg>